<?xml version="1.0" encoding="utf-8"?>
<!-- Generator: Adobe Illustrator 24.1.3, SVG Export Plug-In . SVG Version: 6.00 Build 0)  -->
<svg version="1.1" id="Layer_1" xmlns="http://www.w3.org/2000/svg" xmlns:xlink="http://www.w3.org/1999/xlink" x="0px" y="0px"
	 viewBox="0 0 1000 1000" style="enable-background:new 0 0 1000 1000;" xml:space="preserve">
<style type="text/css">
	.st0{fill:#3E3E3E;}
	.st1{fill:#FFFFFF;}
</style>
<rect class="st0" width="1000" height="1000"/>
<g>
	<g>
		<g>
			<path class="st1" d="M388.95,634.28c-16.26-39.25-32.08-77.45-47.91-115.64c-43.69-105.42-87.24-210.89-131.18-316.2
				c-12.31-29.5-25.98-58.43-46.02-83.73c-16.16-20.41-35.72-35.83-62.09-40.68c-5.61-1.03-11.34-1.44-17.33-2.17
				c0-3.12,0-6.18,0-9.6c78.04,0,156.03,0,234.47,0c0,3.08,0,6.25,0,9.45c-8.74,0.95-17.44,1.47-25.98,2.9
				c-22.37,3.77-34.76,16.12-36.38,36.9c-0.6,7.74,0.08,15.74,1.35,23.43c3.93,23.76,12.93,45.98,22.11,68.05
				c47.33,113.74,94.73,227.45,142.45,341.02c3.5,8.33,3.43,14.66-0.92,22.62c-10.62,19.44-20.14,39.48-30.12,59.27
				C390.81,631.08,390.11,632.22,388.95,634.28z"/>
		</g>
		<g>
			<path class="st1" d="M459.15,635.39c22.41,52.56,44.69,104.81,67.58,158.5c3.4-9.35,6.3-17.24,9.13-25.16
				c51.17-142.95,102.31-285.91,153.5-428.86c12.94-36.14,26.33-72.13,38.95-108.38c9.3-26.71,15.42-54.23,12.97-82.71
				c-0.96-11.13-3.45-22.61-7.77-32.87c-10.84-25.71-32.55-36.56-59.13-39.36c-3.98-0.42-7.98-0.59-12.3-0.9c0-3.16,0-6.05,0-9.35
				c76.79,0,153.71,0,230.95,0c0,3.01,0,5.89,0,9c-8.02,0.9-16.01,1.42-23.87,2.74c-32.15,5.42-55.52,24.02-73.87,49.92
				c-17.6,24.84-30.24,52.32-40.91,80.59c-26.27,69.55-52.37,139.17-77.57,209.12C624.53,562.8,572.88,708.15,520.97,853.41
				c-4.11,11.5-8.2,23.01-12.24,34.54c-0.94,2.68-1.48,5.3-5.45,4.95c-3.76-0.33-7.01,0.47-9.07-4.59
				c-17.99-44.12-36.37-88.09-54.63-132.1c-7.22-17.41-14.52-34.79-21.58-52.26c-0.71-1.76-0.75-4.6,0.21-6.1
				c12.96-20.31,26.14-40.48,39.29-60.67C457.86,636.61,458.41,636.18,459.15,635.39z"/>
		</g>
	</g>
</g>
<g>
	<path class="st1" d="M285.84,847.34c18.47,7.89,36.22,15.56,54.04,23.09c39.47,16.67,79.66,31.17,121.96,38.91
		c36.98,6.77,74.19,9.85,111.45,2.89c37.56-7.02,71.82-22.47,103.8-43.12c46.53-30.04,84.56-69.06,117.83-112.9
		c41.34-54.48,72.66-114.15,91.63-180.06c13.39-46.54,20.17-93.88,16.24-142.33c-6.61-81.44-35.92-153.09-93.27-212.26
		c-11.28-11.64-23.29-22.57-35.39-34.24c1.64-3.53,3.52-7.58,5.84-12.58c8.95,7.94,17.81,15.02,25.76,23
		c57.84,57.97,99.92,125.39,121.13,204.95c21.37,80.15,17.09,159.43-9.77,237.65c-21.3,62.02-54.34,117.09-99.76,164.41
		c-62.7,65.32-138.36,106.58-228.26,120.53c-64.09,9.95-126.67,2.79-188.15-16.97c-40.47-13.01-79.16-30.42-118.12-47.15
		c-5.8-2.49-9.23-2.07-13.91,2.37c-20.55,19.48-43.17,36.06-70.08,45.85c-18.76,6.83-38.05,9.1-57.68,4.5
		c-20.07-4.7-33.41-18.55-35.33-37.35c-1.77-17.31,6.01-30.83,19.25-41.33c17.7-14.04,38.49-17.44,60.29-16.35
		c26.66,1.33,51.76,9.37,76.46,18.82c9.9,3.79,9.93,3.98,17.23-3.86c20.6-22.11,36.75-47.48,52.78-72.89
		c28.36-44.96,51.59-92.72,75.45-140.12c36.42-72.36,72.09-145.13,114.2-214.44c38.14-62.76,78.71-123.83,128.72-178.01
		c12.92-14,26.25-27.7,43.19-36.99c5.62-3.08,11.74-5.34,17.81-7.45c4.06-1.41,7.3,0.5,8.58,4.63c1.22,3.93-0.41,7.17-4.21,8.4
		c-27.29,8.84-45.26,28.91-61.2,51.13c-20.94,29.18-37.69,60.84-53.36,93.05C568.13,408.62,536.73,476.8,500.7,542.7
		c-48.2,88.15-102.18,172.46-166.14,250.09c-14.53,17.64-30.44,34.14-45.72,51.17C288.04,844.85,287.25,845.76,285.84,847.34z
		 M261.32,852.27c-7.22-2.59-13.39-4.95-19.65-7.03c-23.94-7.95-48.11-14.63-73.75-11.94c-16.1,1.69-30.73,6.84-41.25,19.94
		c-12.73,15.83-8.26,35.36,9.98,44.1c12.14,5.82,25,5.78,37.93,3.63C208.98,895.25,235.23,874.98,261.32,852.27z"/>
	<path class="st1" d="M191.69,187.26c0.35,0.29,0.53,0.38,0.6,0.52c6.3,11.49,6.17,11.35-3.35,20.3
		C130.7,262.82,94.54,329.49,82.25,408.56c-7.95,51.18-3.99,101.41,16.75,149.45c17.04,39.47,43.15,71.23,82.96,89.2
		c44.21,19.96,89.36,22.31,134.38,1.87c18.81-8.54,33.91-21.93,46.95-37.77c0.97-1.18,1.98-2.34,3.5-4.12
		c1.89,4.5,3.87,8.34,5.01,12.41c0.41,1.48-0.75,3.88-1.91,5.25c-21.72,25.46-48.87,42.48-81.78,48.36
		c-62,11.08-116.99-3.67-161.93-48.95c-30.3-30.52-47.2-68.46-55.5-110.24c-14.23-71.62-2.77-139.98,27.77-205.55
		c21.37-45.89,51.44-85.4,89.68-118.63c0.79-0.69,1.56-1.4,2.37-2.06C190.74,187.58,191.12,187.5,191.69,187.26z"/>
	<path class="st1" d="M731.93,157.48c-7.12-4.05-13.56-7.78-20.06-11.39c-46.73-25.88-96.71-41.98-149.76-47.41
		c-83.41-8.54-164.87,0.83-243.69,29.98c-16.15,5.97-31.7,13.59-48.09,20.7c-0.78-3.39-2.02-7.18-2.32-11.04
		c-0.1-1.34,1.84-3.45,3.35-4.22c34.7-17.74,71.25-30.31,109.27-38.6c47.47-10.35,95.54-15,144.1-13.62
		c70.9,2.02,137.52,19.84,199.45,54.82c5.11,2.89,7.48,6.14,7.22,11.8C731.28,151.22,731.7,153.96,731.93,157.48z"/>
	<path class="st1" d="M419.12,514.86c-2.92-6.89-5.95-13.73-8.69-20.69c-0.65-1.67-0.51-3.73-0.41-5.6
		c1.28-22.24,1.42-44.5-5.74-65.85c-2.99-8.92-8.37-17.09-13.12-25.34c-2.2-3.82-4.91-7.16-0.84-11.11c3.06-2.96,8.07-2.1,11.9,2.25
		c7.77,8.82,12.55,19.29,15.75,30.46c9.08,31.72,7.78,63.69,2.47,95.71C419.99,514.75,419.56,514.8,419.12,514.86z"/>
</g>
</svg>
